<svg width="130" height="27" viewBox="0 0 130 27" fill="none" xmlns="http://www.w3.org/2000/svg">
<path d="M112.982 0.766575H116.594L120.768 18.0652L124.927 0.766575H128.117L122.299 26.0545H119.222L112.982 0.766575ZM111.521 0.766575H114.964L115.498 17.4399V26.0545H111.521V0.766575ZM126.543 0.766575H130V26.0545H126.037V17.4399L126.543 0.766575Z" fill="white"/>
<path d="M98.9299 0.766575L102.05 12.16L105.141 0.766575H109.624L104.115 16.8668V26.0545H99.9698V16.8668L94.4612 0.766575H98.9299Z" fill="white"/>
<path d="M93.9365 12.7679V23.1887C93.6461 23.5708 93.2199 24.0166 92.6578 24.5261C92.105 25.024 91.379 25.464 90.4796 25.8461C89.5896 26.2166 88.5029 26.4018 87.2194 26.4018C86.0859 26.4018 85.0553 26.1818 84.1279 25.7418C83.2098 25.3019 82.4182 24.6361 81.753 23.7445C81.0972 22.8414 80.596 21.7182 80.2494 20.3751C79.9027 19.0204 79.7294 17.4168 79.7294 15.5642V11.2569C79.7294 9.42745 79.8934 7.83538 80.2213 6.48067C80.5585 5.11439 81.0457 3.97967 81.6827 3.07654C82.3198 2.1734 83.0786 1.50183 83.9592 1.06184C84.8492 0.621851 85.8517 0.401855 86.9665 0.401855C88.5029 0.401855 89.7629 0.72027 90.7466 1.3571C91.7397 1.99393 92.4891 2.93759 92.995 4.18809C93.5103 5.43859 93.8194 6.97277 93.9225 8.79063H89.9456C89.88 7.72538 89.7348 6.89172 89.51 6.28963C89.2945 5.68753 88.99 5.25912 88.5966 5.00439C88.2031 4.73808 87.6925 4.60492 87.0648 4.60492C86.5215 4.60492 86.0484 4.7265 85.6455 4.96965C85.2427 5.20123 84.9054 5.58332 84.6338 6.11594C84.3621 6.64857 84.1607 7.33171 84.0295 8.16538C83.8983 8.99904 83.8328 10.018 83.8328 11.2222V15.5642C83.8328 16.7568 83.9077 17.7757 84.0576 18.6209C84.2075 19.4662 84.4277 20.1551 84.7181 20.6877C85.0179 21.2204 85.3926 21.6082 85.8423 21.8514C86.3013 22.083 86.84 22.1988 87.4583 22.1988C87.9548 22.1988 88.353 22.1351 88.6528 22.0077C88.9526 21.8803 89.1915 21.7472 89.3695 21.6082C89.5568 21.4577 89.7114 21.3419 89.8332 21.2609V16.6062H86.8962V12.7679H93.9365Z" fill="white"/>
<path d="M63.1099 0.766575H69.6724C71.0402 0.766575 72.2065 1.05604 73.1715 1.63498C74.1364 2.21391 74.8765 3.07074 75.3918 4.20545C75.907 5.34016 76.1647 6.74119 76.1647 8.40852C76.1647 9.77481 76.0148 10.9443 75.715 11.9169C75.4152 12.8779 74.9889 13.6826 74.4362 14.331C73.8835 14.9679 73.223 15.4773 72.4548 15.8594L71.2041 16.7799H65.8782L65.8642 12.5595H69.56C70.1221 12.5595 70.5858 12.409 70.9512 12.1079C71.3259 11.7953 71.6023 11.3611 71.7803 10.8053C71.9676 10.238 72.0613 9.57797 72.0613 8.82535C72.0613 8.02642 71.977 7.34328 71.8084 6.77592C71.6491 6.19699 71.3915 5.757 71.0355 5.45595C70.6889 5.14332 70.2345 4.98701 69.6724 4.98701H67.2273V26.0545H63.1099V0.766575ZM72.3986 26.0545L68.6466 14.7826L72.9607 14.7652L76.797 25.8113V26.0545H72.3986Z" fill="white"/>
<path d="M59.6855 21.8514V26.0545H50.7903V21.8514H59.6855ZM52.069 0.766575V26.0545H47.9517V0.766575H52.069ZM58.4911 11.0137V15.0952H50.7903V11.0137H58.4911ZM59.6574 0.766575V4.98701H50.7903V0.766575H59.6574Z" fill="white"/>
<path d="M39.5719 17.1446H35.3842V12.9242H39.5719C40.1527 12.9242 40.6258 12.7621 40.9912 12.4379C41.3659 12.1137 41.6376 11.6679 41.8062 11.1006C41.9748 10.5216 42.0592 9.87322 42.0592 9.15534C42.0592 8.42589 41.9702 7.74853 41.7922 7.12328C41.6235 6.48645 41.3565 5.9712 40.9912 5.57753C40.6352 5.18385 40.1621 4.98701 39.5719 4.98701H36.7051V26.0545H32.6018V0.766575H39.5719C40.949 0.766575 42.1341 1.12551 43.1271 1.84339C44.1202 2.56127 44.879 3.55125 45.4037 4.81333C45.9377 6.06383 46.2047 7.49959 46.2047 9.12061C46.2047 10.7532 45.9377 12.1716 45.4037 13.3758C44.879 14.5684 44.1202 15.4947 43.1271 16.1547C42.1341 16.8147 40.949 17.1446 39.5719 17.1446Z" fill="white"/>
<path d="M25.3508 0.766575H29.4541V18.1346C29.4541 20.0798 29.1637 21.6661 28.5829 22.8935C28.0114 24.1092 27.2198 25.0008 26.208 25.5682C25.1962 26.1239 24.0392 26.4018 22.737 26.4018C21.4254 26.4018 20.2591 26.1239 19.2379 25.5682C18.2168 25.0008 17.4205 24.1092 16.849 22.8935C16.2869 21.6661 16.0059 20.0798 16.0059 18.1346V0.766575H20.1092V18.1346C20.1092 19.2346 20.2076 20.0798 20.4043 20.6704C20.6104 21.2609 20.9055 21.6661 21.2896 21.8861C21.6831 22.0945 22.1655 22.1988 22.737 22.1988C23.3179 22.1988 23.7956 22.0945 24.1704 21.8861C24.5545 21.6661 24.8449 21.2609 25.0416 20.6704C25.2477 20.0798 25.3508 19.2346 25.3508 18.1346V0.766575Z" fill="white"/>
<path d="M9.27467 19.4025C9.27467 18.951 9.24188 18.5399 9.1763 18.1694C9.11072 17.7989 8.97019 17.4573 8.75472 17.1447C8.54862 16.8321 8.24415 16.5194 7.84131 16.2068C7.44784 15.8942 6.93258 15.57 6.29553 15.2342C5.53669 14.8405 4.80128 14.4237 4.08928 13.9837C3.37729 13.5321 2.73556 13.0111 2.16409 12.4206C1.59262 11.8301 1.13825 11.1353 0.800994 10.3364C0.473102 9.5259 0.309156 8.57644 0.309156 7.48805C0.309156 6.42281 0.463733 5.45598 0.772889 4.58758C1.09141 3.71918 1.54109 2.97814 2.12193 2.36447C2.70277 1.73922 3.38197 1.2587 4.15955 0.922922C4.94649 0.58714 5.82243 0.419249 6.78737 0.419249C8.09894 0.419249 9.23251 0.755031 10.1881 1.4266C11.153 2.09816 11.8978 3.01867 12.4224 4.18812C12.9564 5.35756 13.2234 6.70069 13.2234 8.2175H9.12009C9.12009 7.49962 9.03577 6.86859 8.86714 6.32439C8.70788 5.76861 8.45025 5.33441 8.09425 5.02178C7.73826 4.70916 7.27921 4.55285 6.71711 4.55285C6.19248 4.55285 5.75685 4.686 5.41022 4.95231C5.07296 5.20704 4.82002 5.56019 4.65139 6.01176C4.49212 6.45175 4.41249 6.94964 4.41249 7.50541C4.41249 7.92225 4.49212 8.29855 4.65139 8.63434C4.82002 8.95854 5.04954 9.2538 5.33996 9.52011C5.63038 9.77484 5.97232 10.0238 6.36579 10.2669C6.76863 10.5101 7.20895 10.7474 7.68673 10.979C8.6142 11.4306 9.43393 11.9285 10.1459 12.4727C10.8579 13.0053 11.4528 13.6074 11.9306 14.279C12.4084 14.9389 12.7691 15.6858 13.0126 16.5194C13.2562 17.3531 13.378 18.3026 13.378 19.3678C13.378 20.4215 13.2281 21.3825 12.9283 22.2509C12.6379 23.1077 12.2116 23.8488 11.6495 24.474C11.0874 25.0877 10.4082 25.5624 9.61193 25.8982C8.82499 26.234 7.94436 26.4019 6.97005 26.4019C6.02385 26.4019 5.12917 26.2398 4.28602 25.9155C3.44287 25.5798 2.69808 25.0761 2.05167 24.4045C1.41462 23.7214 0.913414 22.8588 0.548048 21.8167C0.182683 20.763 0 19.5183 0 18.0826H4.11739C4.11739 18.8468 4.17828 19.5009 4.30007 20.0451C4.42186 20.5778 4.60923 21.0062 4.86217 21.3304C5.11512 21.643 5.42427 21.8804 5.78964 22.0425C6.16437 22.193 6.59063 22.2683 7.06842 22.2683C7.61178 22.2683 8.04273 22.1409 8.36125 21.8862C8.68914 21.6314 8.92335 21.2899 9.06388 20.8614C9.2044 20.433 9.27467 19.9467 9.27467 19.4025Z" fill="white"/>
</svg>
